<?xml version="1.0" standalone="no"?>
<!DOCTYPE svg PUBLIC "-//W3C//DTD SVG 20010904//EN"
 "http://www.w3.org/TR/2001/REC-SVG-20010904/DTD/svg10.dtd">
<svg version="1.0" xmlns="http://www.w3.org/2000/svg"
 width="700.000000pt" height="700.000000pt" viewBox="0 0 700.000000 700.000000"
 preserveAspectRatio="xMidYMid meet">
<metadata>
Created by potrace 1.14, written by Peter Selinger 2001-2017
</metadata>
<g transform="translate(0.000000,700.000000) scale(0.100000,-0.100000)"
fill="#000000" stroke="none">
<path d="M2865 6419 c-77 -10 -158 -22 -180 -28 -22 -5 -56 -13 -75 -16 -223
-39 -569 -166 -804 -296 -778 -430 -1308 -1157 -1484 -2034 -11 -55 -24 -125
-28 -155 -3 -30 -9 -68 -11 -85 -9 -62 -10 -533 -2 -615 59 -591 305 -1171
687 -1620 57 -67 251 -262 312 -315 75 -64 178 -144 240 -185 36 -25 67 -47
70 -50 9 -10 191 -115 280 -162 191 -100 499 -213 660 -244 14 -3 33 -7 42
-10 22 -6 47 -11 143 -28 168 -30 211 -34 386 -41 l125 -4 1 190 c1 168 -1
189 -16 190 -9 0 -23 2 -31 3 -8 2 -51 6 -95 10 -119 10 -176 15 -215 21 -19
3 -48 8 -65 10 -16 2 -41 7 -55 10 -14 2 -50 10 -80 16 -352 70 -823 301
-1095 538 -89 78 -295 292 -366 381 -141 176 -276 403 -349 585 -18 44 -38 94
-45 110 -48 112 -123 429 -140 590 -3 28 -7 69 -10 91 -12 101 -6 425 10 514
3 14 7 45 10 70 20 172 92 428 181 635 150 353 401 693 695 941 105 89 129
108 235 179 343 230 773 387 1159 422 158 14 564 7 635 -12 8 -2 35 -7 60 -10
25 -4 92 -18 150 -31 58 -14 112 -27 120 -29 35 -8 158 -49 195 -65 22 -10 51
-21 65 -25 14 -4 84 -36 156 -71 249 -122 476 -282 684 -486 52 -51 184 -198
220 -247 14 -18 35 -45 46 -59 107 -133 272 -437 343 -631 38 -104 96 -305
107 -370 13 -75 26 -149 30 -171 2 -14 7 -71 11 -127 5 -87 3 -103 -9 -103 -8
0 -80 23 -159 51 -279 98 -380 131 -386 126 -4 -5 250 -454 484 -857 28 -47
92 -157 143 -245 51 -88 98 -166 105 -173 10 -11 16 -9 32 15 32 44 343 575
471 803 14 25 60 106 102 180 127 223 153 271 147 276 -5 5 -61 -13 -339 -110
l-187 -65 -6 57 c-3 31 -8 75 -10 97 -13 114 -17 147 -31 230 -76 448 -270
898 -548 1270 -33 44 -62 82 -66 85 -3 3 -28 32 -55 65 -53 63 -232 246 -300
305 -461 402 -1052 659 -1650 716 -153 15 -506 11 -650 -7z"/>
<path d="M3098 5862 c-44 -19 -56 -39 -67 -112 -10 -64 -8 -637 3 -661 15 -33
67 -61 125 -66 61 -6 89 4 144 50 l27 23 2 326 2 325 -25 49 c-15 29 -37 55
-53 63 -41 20 -116 21 -158 3z"/>
<path d="M4575 4701 c-74 -27 -160 -81 -419 -266 -22 -16 -95 -71 -161 -122
-136 -105 -121 -93 -200 -156 -115 -92 -140 -113 -230 -187 -123 -102 -124
-103 -148 -123 -77 -65 -122 -103 -197 -165 l-84 -70 -31 15 c-16 9 -88 57
-160 107 -293 206 -519 324 -602 314 -104 -12 -24 -217 231 -593 33 -49 64
-94 69 -100 4 -5 37 -50 74 -100 128 -173 239 -289 303 -317 62 -27 142 -30
215 -7 64 20 118 63 211 170 103 117 162 185 190 219 16 19 31 37 34 40 3 3
44 50 90 105 98 115 98 115 180 215 34 41 71 86 82 99 133 159 401 514 498
661 102 156 138 236 117 264 -11 13 -18 13 -62 -3z"/>
<path d="M936 3639 c-56 -9 -90 -37 -107 -87 -15 -46 -6 -127 18 -160 36 -49
71 -54 418 -55 l321 -2 32 30 c78 73 73 210 -11 260 -30 19 -53 20 -327 21
-162 0 -317 -3 -344 -7z"/>
<path d="M3967 2244 c-2 -2 -21 -6 -43 -9 -124 -19 -275 -93 -394 -193 l-35
-29 40 -49 c22 -27 47 -57 55 -68 8 -10 20 -23 25 -30 6 -6 22 -25 36 -43 l26
-31 54 37 c122 86 215 123 318 126 120 3 190 -39 217 -131 26 -92 5 -190 -64
-291 -67 -98 -144 -183 -472 -516 -129 -131 -237 -246 -240 -255 -5 -14 -5
-177 -1 -218 1 -8 172 -11 586 -11 l585 0 1 21 c2 86 1 257 -2 260 -2 3 -165
6 -362 7 -257 2 -357 6 -357 14 0 6 117 130 260 276 249 252 325 343 365 434
9 22 21 49 26 60 33 75 35 257 4 340 -54 144 -177 244 -353 287 -42 10 -267
20 -275 12z"/>
<path d="M5444 2070 c-55 -79 -148 -217 -208 -305 -60 -88 -141 -207 -181
-265 -39 -58 -113 -166 -163 -240 l-92 -135 -1 -95 c0 -52 0 -109 0 -125 l1
-31 360 1 c198 0 360 -2 361 -5 0 -3 1 -79 2 -170 l2 -165 171 -1 170 -2 -1
169 c-1 143 2 168 15 171 8 2 54 3 103 3 l87 0 0 137 0 138 -67 1 c-138 2
-127 -2 -130 49 -2 25 -4 263 -5 530 l-3 485 -161 0 -162 0 -98 -145z m90
-405 c-3 -79 -7 -225 -9 -322 -2 -98 -4 -182 -4 -186 -1 -12 -390 -7 -397 4
-7 12 25 65 201 334 73 110 147 226 166 258 18 31 37 57 41 57 5 0 5 -65 2
-145z"/>
</g>
</svg>
