<svg xmlns="http://www.w3.org/2000/svg" version="1.1" xmlns:xlink="http://www.w3.org/1999/xlink" xmlns:svgjs="http://svgjs.com/svgjs" width="512.000000pt" height="512.000000pt"><svg version="1.0" xmlns="http://www.w3.org/2000/svg" width="512.000000pt" height="512.000000pt" viewBox="0 0 512.000000 512.000000" preserveAspectRatio="xMidYMid meet">

<g transform="translate(0.000000,512.000000) scale(0.100000,-0.100000)" fill="#000000" stroke="none">
<path d="M2160 4703 c-342 -35 -658 -140 -934 -311 -553 -342 -914 -895 -1011
-1547 -22 -149 -23 -433 -1 -590 137 -974 893 -1722 1870 -1850 64 -8 153 -15
197 -15 l79 0 0 138 0 138 -137 12 c-271 22 -470 78 -708 197 -186 93 -307
178 -454 320 -173 167 -313 359 -403 553 -346 749 -177 1618 424 2176 270 251
593 410 968 478 164 29 448 29 612 0 206 -38 361 -88 530 -173 518 -261 899
-759 1007 -1320 26 -135 38 -279 23 -279 -6 0 -99 32 -207 71 -109 39 -199 69
-201 67 -4 -5 541 -949 550 -951 9 -3 556 947 548 950 -4 2 -92 -28 -197 -66
-104 -38 -191 -67 -193 -66 -2 2 -8 52 -13 112 -93 1023 -907 1848 -1928 1952
-96 10 -341 12 -421 4z"></path>
<path d="M2261 4286 c-47 -26 -50 -45 -51 -304 0 -149 4 -251 10 -263 15 -27
63 -49 109 -49 31 0 49 7 73 29 l33 29 3 239 c2 212 1 242 -15 273 -10 19 -29
40 -43 47 -32 16 -89 16 -119 -1z"></path>
<path d="M3325 3431 c-126 -57 -525 -359 -895 -676 -69 -59 -130 -109 -137
-112 -6 -2 -44 20 -85 50 -252 187 -473 300 -516 264 -39 -32 13 -160 147
-365 162 -247 298 -412 366 -443 51 -24 129 -24 181 0 50 23 78 51 263 266
467 541 771 958 747 1021 -7 18 -22 17 -71 -5z"></path>
<path d="M651 2656 c-33 -18 -50 -53 -51 -104 0 -54 12 -77 50 -97 23 -12 74
-15 269 -15 l239 0 30 25 c58 48 47 160 -18 192 -37 18 -486 17 -519 -1z"></path>
<path d="M2902 1639 c-75 -9 -119 -23 -187 -56 -54 -27 -155 -99 -155 -111 0
-4 30 -42 66 -85 l65 -78 38 31 c21 16 67 43 102 60 81 38 184 42 237 10 55
-34 76 -114 52 -201 -21 -74 -94 -164 -330 -403 l-240 -243 0 -87 0 -86 430 0
430 0 0 105 0 105 -263 0 c-145 0 -267 3 -270 7 -4 3 87 99 201 212 196 194
211 211 252 293 37 75 44 98 48 167 6 104 -16 175 -74 240 -89 99 -234 142
-402 120z"></path>
<path d="M3782 1221 l-272 -400 0 -90 0 -91 265 0 265 0 0 -125 0 -125 125 0
125 0 0 125 0 125 75 0 75 0 0 100 0 99 -72 3 -73 3 -3 388 -2 387 -118 0
-118 0 -272 -399z m267 12 c-4 -54 -7 -164 -8 -245 l-1 -148 -150 0 c-95 0
-150 4 -150 10 0 6 53 90 119 188 65 98 133 203 151 235 17 31 35 57 38 57 4
0 4 -44 1 -97z"></path>
</g>
</svg><style>@media (prefers-color-scheme: light) { :root { filter: none; } }
</style></svg>