
<svg version="1.0" xmlns="http://www.w3.org/2000/svg"
 width="612.000000pt" height="612.000000pt" viewBox="0 0 612.000000 612.000000"
 preserveAspectRatio="xMidYMid meet">

fill="#000000" stroke="none">
<path d="M1947 5319 c-10 -6 -38 -38 -62 -71 -102 -140 -306 -350 -485 -499
-142 -117 -524 -386 -615 -432 -28 -14 -72 -28 -98 -32 -51 -8 -77 -32 -77
-71 0 -40 34 -64 155 -113 353 -142 763 -385 1180 -699 142 -108 224 -151 283
-152 44 0 50 22 21 79 -21 43 -24 60 -27 237 -4 207 3 254 43 303 45 53 98 70
266 86 85 9 206 20 269 27 158 16 570 16 705 0 306 -36 530 -101 698 -200 253
-150 462 -506 587 -1001 69 -276 94 -500 110 -996 19 -596 36 -736 110 -873
73 -135 108 -155 134 -74 23 74 43 177 86 447 21 138 50 309 64 380 24 124 72
389 115 635 67 379 94 680 95 1030 1 291 -8 425 -45 664 -62 408 -143 559
-354 661 -116 57 -210 79 -496 115 -573 71 -925 68 -1363 -15 -259 -49 -347
-62 -471 -74 -176 -17 -639 -18 -665 -1 -11 7 -17 52 -27 187 -20 297 -56 463
-100 463 -10 0 -26 -5 -36 -11z m-77 -379 c0 -10 -69 -60 -83 -60 -16 0 14 40
41 54 32 18 42 19 42 6z m20 -118 c-13 -9 -87 -61 -165 -114 -77 -53 -172
-124 -211 -156 -62 -53 -166 -114 -241 -143 -60 -23 -8 26 157 148 329 242
395 283 454 282 l31 0 -25 -17z m95 -61 c6 -11 -15 -61 -26 -61 -4 0 -14 -3
-23 -6 -22 -9 -20 12 5 47 21 30 34 36 44 20z m1909 -34 c16 -12 15 -14 -8
-36 -27 -25 -52 -23 -63 5 -4 11 1 22 12 30 23 17 36 18 59 1z m-204 -25 c0
-20 -224 -162 -256 -162 -3 0 4 16 16 36 16 25 21 44 16 65 -7 36 8 44 116 57
101 13 108 13 108 4z m275 -48 c-88 -75 -433 -253 -540 -278 -28 -7 -29 -7
-12 11 9 11 58 41 109 68 90 48 458 224 468 224 3 0 -8 -11 -25 -25z m245 16
c0 -39 -533 -326 -846 -456 -165 -68 -350 -106 -369 -75 -7 12 43 50 104 81
40 20 48 21 82 10 21 -7 51 -10 67 -7 16 3 233 107 481 231 249 125 459 226
467 226 8 0 14 -4 14 -10z m240 0 c13 -9 10 -14 -14 -35 -30 -24 -463 -221
-471 -214 -7 7 290 208 347 234 55 26 112 32 138 15z m-1115 -40 c0 -17 -61
-60 -86 -60 -17 0 -49 45 -49 70 0 7 23 10 68 8 51 -2 67 -7 67 -18z m1338
-20 c-4 -4 -19 -11 -33 -14 l-25 -7 24 20 c21 19 54 19 34 1z m-2082 -50 l24
-20 -35 -31 c-48 -41 -118 -81 -130 -74 -24 15 -9 59 34 101 48 49 72 54 107
24z m2308 5 c11 -11 -14 -37 -61 -64 -68 -38 -147 -94 -148 -103 0 -5 12 -8
26 -8 21 0 24 -3 15 -14 -35 -42 -385 -244 -491 -283 -76 -28 -105 -66 -57
-78 32 -8 67 6 427 178 179 85 343 158 365 162 22 4 38 5 35 2 -3 -2 -59 -33
-125 -67 -66 -34 -138 -73 -160 -85 -82 -47 -404 -206 -445 -220 -47 -17 -116
-20 -124 -6 -3 5 -42 21 -86 37 -44 15 -79 32 -77 38 5 16 68 49 192 102 61
25 117 53 125 61 13 14 10 15 -28 9 -23 -3 -84 -22 -135 -41 -51 -19 -108 -37
-127 -41 l-35 -6 35 23 c19 12 105 55 190 94 173 80 483 236 575 289 53 30 96
38 114 21z m-1969 -10 c0 -28 -203 -162 -231 -153 -22 7 187 168 217 168 8 0
14 -7 14 -15z m-612 -26 c3 -15 -31 -31 -245 -116 -7 -3 -13 2 -13 11 0 22
105 103 149 115 53 14 105 9 109 -10z m-538 1 c0 -19 -93 -77 -262 -165 -145
-75 -238 -114 -238 -99 0 2 19 13 43 25 23 12 51 29 62 39 42 36 363 210 388
210 4 0 7 -4 7 -10z m3375 0 c3 -5 -1 -10 -9 -10 -8 0 -18 5 -21 10 -3 6 1 10
9 10 8 0 18 -4 21 -10z m-3230 -60 c-12 -19 -192 -124 -394 -229 -231 -120
-270 -137 -296 -127 -17 6 -17 7 0 26 9 10 52 33 94 51 42 17 117 54 166 82
50 28 164 88 255 133 148 75 191 90 175 64z m2344 16 c-16 -16 -365 -204 -504
-272 -200 -98 -275 -120 -275 -80 0 10 375 197 525 262 114 49 268 103 254 90z
m779 -18 c7 -35 -170 -127 -224 -116 -12 2 8 20 67 59 107 72 121 79 139 76 8
-1 16 -10 18 -19z m-1843 4 c-21 -19 -193 -137 -249 -172 -34 -20 -117 -64
-186 -97 -69 -33 -145 -76 -168 -96 -44 -37 -66 -44 -90 -28 -11 7 -11 11 2
23 35 35 461 282 566 328 112 48 145 59 125 42z m115 -37 c0 -17 -30 -35 -59
-35 -27 0 -27 14 2 33 28 20 57 21 57 2z m-650 -55 c-8 -6 -24 -15 -35 -21
-16 -8 -15 -6 4 10 13 12 28 21 35 21 6 0 4 -5 -4 -10z m2552 -67 c57 -54 108
-135 108 -174 0 -31 -21 -50 -78 -72 -60 -24 -61 -22 -12 28 l44 44 -35 71
c-19 38 -41 72 -50 75 -21 7 -94 -19 -309 -113 -102 -44 -203 -84 -225 -87
l-40 -6 25 20 c21 17 187 106 440 238 25 13 53 23 63 23 10 0 41 -21 69 -47z
m-4117 17 c-3 -5 -12 -10 -18 -10 -7 0 -6 4 3 10 19 12 23 12 15 0z m847 -83
c-89 -79 -170 -114 -229 -98 -25 7 -23 9 43 51 67 42 181 89 217 90 12 0 3
-13 -31 -43z m-717 -17 c-20 -19 -201 -120 -217 -120 -4 0 -8 6 -8 13 0 11
211 125 235 126 5 1 1 -8 -10 -19z m925 -36 c0 -6 -64 -34 -77 -34 -4 0 3 9
17 20 23 18 60 27 60 14z m-480 -58 c0 -2 -28 -22 -62 -46 -85 -58 -116 -88
-139 -132 -24 -46 -54 -68 -97 -68 -84 0 -147 77 -76 94 13 4 95 40 181 81
137 65 193 86 193 71z m485 -41 c-77 -69 -127 -97 -172 -93 l-38 3 100 61 c55
34 107 64 115 67 41 15 40 3 -5 -38z m2720 11 c-46 -32 -475 -246 -493 -246
-27 0 -46 24 -30 37 30 23 371 172 468 204 67 22 81 23 55 5z m-2986 -41 c-22
-22 -177 -90 -186 -81 -11 11 160 105 192 106 18 0 18 -2 -6 -25z m3139 -17
c-4 -12 -495 -268 -515 -268 -7 0 -13 6 -13 13 1 21 479 265 523 267 5 0 7 -5
5 -12z m182 -77 c0 -5 -13 -20 -29 -33 -35 -30 -398 -238 -486 -280 -74 -34
-118 -35 -123 -1 -3 20 24 36 250 149 325 163 388 190 388 165z m95 -41 c-3
-5 -10 -10 -16 -10 -5 0 -9 5 -9 10 0 6 7 10 16 10 8 0 12 -4 9 -10z m-50
-104 c-11 -7 -31 -16 -45 -20 -19 -5 -16 -2 10 13 40 23 65 28 35 7z m115 -30
c0 -20 -106 -87 -149 -93 -33 -5 -29 -1 48 51 88 59 101 64 101 42z m-3380
-38 c-19 -16 -57 -44 -85 -61 -38 -25 -50 -38 -50 -57 0 -20 6 -26 28 -28 28
-3 28 -4 11 -23 -9 -10 -27 -19 -38 -19 -27 0 -119 81 -109 96 23 31 258 141
273 127 3 -3 -11 -18 -30 -35z m3144 2 c-28 -28 -251 -162 -368 -222 -32 -16
-64 -27 -72 -24 -22 9 -16 33 14 54 47 34 443 234 450 228 3 -4 -7 -20 -24
-36z m216 -145 c0 -14 -51 -45 -99 -60 -32 -10 -20 9 31 46 45 32 68 37 68 14z
m-180 -5 c0 -11 -23 -26 -239 -157 -85 -51 -160 -92 -165 -90 -23 8 -16 36 13
58 39 29 362 198 379 199 6 0 12 -4 12 -10z m206 -141 c4 -7 7 -45 6 -85 -1
-108 -13 -124 -135 -182 -197 -95 -196 -81 4 78 75 59 93 90 86 145 -4 23 -3
45 0 49 10 10 31 7 39 -5z m-3261 -59 c3 -5 1 -10 -4 -10 -6 0 -11 5 -11 10 0
6 2 10 4 10 3 0 8 -4 11 -10z m2888 -59 c-48 -40 -180 -104 -200 -97 -15 6
-15 9 3 26 21 22 216 111 224 103 3 -3 -9 -17 -27 -32z m167 25 c0 -2 -8 -10
-17 -17 -16 -13 -17 -12 -4 4 13 16 21 21 21 13z m-50 -46 c0 -5 -8 -10 -17
-10 -15 0 -16 2 -3 10 19 12 20 12 20 0z m26 -31 c9 -16 -25 -47 -166 -149
-106 -76 -127 -88 -138 -76 -27 26 6 66 96 117 46 27 104 64 130 83 50 37 67
43 78 25z m164 -142 c0 -18 -395 -259 -417 -255 -23 4 -30 60 -10 77 20 16
398 190 415 191 6 0 12 -6 12 -13z m-50 -215 c0 -10 -313 -222 -329 -222 -16
0 -33 39 -26 61 5 14 54 43 158 94 141 68 197 87 197 67z m-60 -192 c0 -15
-210 -160 -231 -160 -22 0 -26 32 -6 48 6 6 59 37 116 71 97 56 121 64 121 41z
m100 -39 c0 -11 -39 -41 -52 -41 -12 0 -9 25 4 38 14 14 48 16 48 3z m-85
-130 c-27 -23 -215 -151 -223 -151 -15 0 -23 30 -13 49 17 31 178 108 231 110
8 1 10 -2 5 -8z m-115 -200 c0 -10 -67 -71 -79 -71 -16 0 -20 13 -10 31 16 31
89 63 89 40z m-36 -186 c-38 -23 -61 -24 -48 -3 9 14 67 37 77 31 5 -3 -8 -16
-29 -28z m134 -67 c-6 -17 -169 -129 -182 -125 -6 2 -11 15 -11 28 0 20 14 31
84 67 85 43 116 51 109 30z m-92 -350 c8 -13 -51 -68 -73 -68 -14 0 -17 28 -5
46 9 14 43 33 59 34 6 0 15 -5 19 -12z m-9 -183 c-19 -19 -37 -19 -37 -1 0 8
10 16 23 18 30 5 32 2 14 -17z m-7 -325 c0 -5 -4 -10 -10 -10 -5 0 -10 5 -10
10 0 6 5 10 10 10 6 0 10 -4 10 -10z"/>

</svg>
