<?xml version="1.0" standalone="no"?>
<!DOCTYPE svg PUBLIC "-//W3C//DTD SVG 20010904//EN"
 "http://www.w3.org/TR/2001/REC-SVG-20010904/DTD/svg10.dtd">
<svg version="1.0" xmlns="http://www.w3.org/2000/svg"
 width="7730.000000pt" height="7730.000000pt" viewBox="0 0 7730.000000 7730.000000"
 preserveAspectRatio="xMidYMid meet">

<g transform="translate(0.000000,7730.000000) scale(0.100000,-0.100000)"
fill="#000000" stroke="none">
<path d="M44347 70169 c-156 -25 -468 -94 -807 -180 -315 -80 -590 -137 -835
-173 -342 -50 -467 -58 -1090 -66 -632 -8 -684 -12 -884 -65 -308 -82 -648
-301 -825 -529 -107 -139 -152 -222 -257 -478 -136 -331 -230 -486 -399 -658
-307 -311 -728 -523 -1180 -594 -242 -39 -625 -45 -985 -16 -788 62 -1162 9
-1491 -210 -118 -79 -305 -271 -393 -405 -187 -284 -310 -635 -366 -1046 -22
-161 -30 -494 -16 -668 78 -977 516 -1779 1195 -2191 364 -221 799 -349 1330
-391 190 -15 734 -6 946 15 337 34 858 111 877 130 6 6 23 55 37 108 116 431
367 990 682 1518 684 1150 1706 2198 2309 2369 39 10 122 46 185 79 261 136
546 214 945 257 263 29 658 105 724 140 14 7 42 31 62 52 61 63 92 138 109
262 10 70 9 84 -9 129 -11 28 -27 78 -36 113 -11 41 -28 76 -51 103 -55 64
-77 120 -82 207 -4 74 -3 79 22 104 24 24 33 27 69 21 23 -4 64 -20 90 -36 27
-17 50 -30 51 -30 2 0 6 19 10 43 13 79 75 186 153 264 81 80 209 153 307 173
105 22 252 -15 367 -92 114 -77 144 -157 136 -372 -5 -160 -37 -305 -101 -455
-96 -228 -246 -398 -368 -417 -38 -7 -39 -8 -36 -43 l3 -36 95 -22 c287 -67
410 -113 639 -236 100 -55 169 -84 261 -112 151 -45 428 -147 603 -222 71 -30
131 -53 134 -50 3 3 -2 88 -12 189 -23 241 -32 845 -16 1074 15 218 42 423 91
704 21 124 44 275 50 336 24 235 -34 436 -184 647 -305 427 -927 720 -1631
766 -211 14 -287 13 -428 -10z"/>
<path d="M51565 63144 c-1171 -23 -2246 -43 -2387 -43 -275 -1 -330 -8 -418
-50 -121 -58 -125 -64 -551 -816 -215 -379 -412 -726 -437 -770 -25 -44 -178
-312 -339 -595 -162 -283 -298 -519 -302 -523 -5 -5 -733 -45 -1617 -88 -1294
-63 -1616 -81 -1649 -94 -57 -21 -91 -60 -184 -209 -73 -117 -81 -135 -81
-179 0 -63 30 -118 80 -146 30 -16 55 -21 116 -21 68 0 938 32 4512 169 435
16 736 32 740 38 4 5 186 17 432 26 2822 114 2812 113 2875 136 81 29 160 85
205 146 21 27 84 129 140 225 57 96 429 719 826 1383 398 665 729 1225 735
1246 21 71 -26 167 -98 197 -45 19 -130 18 -2598 -32z"/>
<path d="M38000 58319 c-5892 -44 -11229 -506 -13548 -1174 -668 -192 -1057
-395 -1160 -604 l-27 -56 0 -840 0 -840 25 -50 c385 -787 4935 -1428 11325
-1595 1820 -47 4317 -47 6175 0 3544 91 6624 312 8998 647 182 25 332 51 332
56 0 12 -284 573 -376 742 -396 727 -894 1395 -1613 2164 -58 62 -108 117
-109 122 -2 5 10 14 27 20 17 6 31 15 31 20 0 5 3 8 8 7 4 -1 43 10 87 25 204
68 386 59 560 -29 73 -37 160 -99 304 -217 231 -188 403 -263 631 -274 208
-10 309 17 604 161 282 139 396 168 563 146 349 -46 679 -308 1017 -808 26
-40 50 -72 51 -72 11 0 -136 445 -213 645 -128 331 -335 761 -441 913 -10 15
-45 68 -76 117 -32 50 -60 92 -64 95 -3 3 -19 25 -36 49 -16 24 -35 45 -42 48
-7 3 -22 25 -34 49 -12 23 -28 45 -36 48 -8 3 -11 1 -8 -4 4 -6 -10 -10 -34
-10 -23 0 -41 -4 -41 -10 0 -5 -18 -10 -40 -10 -22 0 -40 -4 -40 -10 0 -5 -18
-10 -40 -10 l-40 0 0 -40 0 -40 42 0 c23 0 39 -3 35 -6 -3 -3 -40 -3 -81 1
-65 6 -76 10 -76 26 0 15 -7 19 -40 19 -22 0 -40 -4 -40 -10 0 -5 -18 -10 -40
-10 -22 0 -40 -4 -40 -10 0 -5 -18 -10 -40 -10 l-40 0 0 -40 0 -40 42 0 c23 0
39 -3 35 -6 -3 -3 -40 -3 -81 1 -65 6 -76 10 -76 26 0 15 -7 19 -40 19 -22 0
-40 -4 -40 -10 0 -6 -33 -10 -80 -10 -47 0 -80 -4 -80 -10 0 -5 -18 -10 -40
-10 -33 0 -40 -3 -40 -20 0 -18 -7 -20 -80 -20 -47 0 -80 -4 -80 -10 0 -5 -18
-10 -40 -10 -22 0 -40 -4 -40 -10 0 -5 -18 -10 -40 -10 -33 0 -40 -3 -40 -20
0 -18 -7 -20 -80 -20 -47 0 -80 -4 -80 -10 0 -5 -18 -10 -40 -10 -22 0 -40 -4
-40 -10 0 -5 -18 -10 -40 -10 l-40 0 0 -40 0 -40 42 0 c23 0 39 -3 35 -6 -3
-3 -40 -3 -81 1 -65 6 -76 10 -76 26 0 15 -7 19 -40 19 -22 0 -40 -4 -40 -10
0 -5 -18 -10 -40 -10 -22 0 -40 -4 -40 -10 0 -6 -33 -10 -80 -10 -73 0 -80 -2
-80 -20 0 -17 -7 -20 -40 -20 -22 0 -40 -4 -40 -10 0 -6 -33 -10 -80 -10 -47
0 -80 -4 -80 -10 0 -5 -18 -10 -40 -10 -33 0 -40 -3 -40 -20 0 -18 -7 -20 -80
-20 -47 0 -80 -4 -80 -10 0 -5 -18 -10 -40 -10 -22 0 -40 -4 -40 -10 0 -5 -18
-10 -40 -10 -33 0 -40 -3 -40 -20 0 -18 -7 -20 -80 -20 -47 0 -80 -4 -80 -10
0 -5 -18 -10 -40 -10 -22 0 -40 -4 -40 -10 0 -5 -18 -10 -40 -10 l-40 0 0 -40
0 -40 43 -2 42 -1 -40 -4 c-22 -3 -47 -10 -55 -16 -13 -11 -13 -10 -1 6 15 19
2 24 -17 5 -7 -7 -12 -8 -12 -2 0 6 -7 11 -16 11 -10 0 -6 -8 13 -24 15 -14
21 -22 12 -20 -9 3 -22 1 -29 -3 -17 -11 -49 10 -80 52 -13 19 -16 27 -7 19
13 -10 17 -10 17 -1 0 10 3 10 15 0 11 -9 15 -9 15 -1 0 7 4 10 8 7 4 -2 8 4
8 15 0 22 -7 24 -23 8 -6 -6 -25 -12 -41 -13 -23 -2 -33 3 -41 21 -6 13 -14
23 -18 22 -21 -3 -31 3 -42 27 -7 16 -17 24 -26 20 -9 -3 -12 0 -9 9 10 26
-44 1 -511 -233 -587 -295 -783 -381 -1110 -490 -722 -240 -1695 -330 -2425
-226 -777 111 -1349 445 -1641 958 -47 84 -43 81 -185 96 -183 19 -340 -7
-646 -106 -256 -83 -326 -79 -404 24 -110 143 -54 512 148 991 22 51 37 95 35
97 -5 5 -606 11 -1547 17 -272 2 -916 0 -1430 -4z m12964 -524 c-4 -10 -20
-15 -45 -15 -53 0 -50 18 4 23 23 2 43 4 44 5 1 1 0 -5 -3 -13z m26 -45 c0 -5
-4 -10 -10 -10 -5 0 -10 5 -10 10 0 6 5 10 10 10 6 0 10 -4 10 -10z m-307 -77
c-24 -2 -43 -8 -43 -14 0 -5 -18 -9 -40 -9 -29 0 -40 4 -40 15 0 12 15 15 83
13 45 -1 63 -3 40 -5z m-540 -140 c-13 -2 -33 -2 -45 0 -13 2 -3 4 22 4 25 0
35 -2 23 -4z m-80 -20 c-13 -2 -33 -2 -45 0 -13 2 -3 4 22 4 25 0 35 -2 23 -4z
m-340 -80 c-24 -2 -62 -2 -85 0 -24 2 -5 4 42 4 47 0 66 -2 43 -4z m-400 -80
c-24 -2 -43 -8 -43 -14 0 -5 -18 -9 -40 -9 -29 0 -40 4 -40 15 0 12 15 15 83
13 45 -1 63 -3 40 -5z m-220 -60 c-13 -2 -33 -2 -45 0 -13 2 -3 4 22 4 25 0
35 -2 23 -4z m-80 -20 c-13 -2 -33 -2 -45 0 -13 2 -3 4 22 4 25 0 35 -2 23 -4z
m-240 -60 c-13 -2 -33 -2 -45 0 -13 2 -3 4 22 4 25 0 35 -2 23 -4z m-80 -20
c-13 -2 -33 -2 -45 0 -13 2 -3 4 22 4 25 0 35 -2 23 -4z m-899 -79 c3 -8 2
-12 -4 -9 -6 3 -10 10 -10 16 0 14 7 11 14 -7z m559 -1 c-24 -2 -62 -2 -85 0
-24 2 -5 4 42 4 47 0 66 -2 43 -4z"/>
<path d="M49933 57823 c9 -2 23 -2 30 0 6 3 -1 5 -18 5 -16 0 -22 -2 -12 -5z"/>
<path d="M50000 57821 c0 -6 17 -7 38 -4 51 8 53 13 4 13 -23 0 -42 -4 -42 -9z"/>
<path d="M50148 57810 c12 -11 26 -20 32 -20 5 0 1 9 -10 20 -11 11 -25 20
-32 20 -6 0 -2 -9 10 -20z"/>
<path d="M49746 57801 c-19 -7 -18 -8 4 -14 13 -3 26 -4 29 -2 2 3 -2 5 -10 5
-11 0 -11 2 1 10 18 11 3 12 -24 1z"/>
<path d="M49890 57800 l-55 -7 50 0 c28 -1 61 3 75 7 31 10 10 10 -70 0z"/>
<path d="M50040 57800 c-42 -7 -40 -7 25 -8 48 -1 65 1 55 8 -8 5 -19 9 -25 8
-5 0 -30 -4 -55 -8z"/>
<path d="M49490 57720 c0 -5 -12 -10 -27 -10 -14 0 -24 -3 -20 -6 10 -10 78 6
72 17 -8 12 -25 12 -25 -1z"/>
<path d="M50000 57710 c0 -5 18 -10 40 -10 22 0 40 5 40 10 0 6 -18 10 -40 10
-22 0 -40 -4 -40 -10z"/>
<path d="M49680 57630 c0 -5 18 -10 40 -10 22 0 40 5 40 10 0 6 -18 10 -40 10
-22 0 -40 -4 -40 -10z"/>
<path d="M48755 57570 c-7 -12 2 -12 30 0 19 8 19 9 -2 9 -12 1 -25 -3 -28 -9z"/>
<path d="M49360 57550 c0 -5 18 -10 40 -10 22 0 40 5 40 10 0 6 -18 10 -40 10
-22 0 -40 -4 -40 -10z"/>
<path d="M48473 57492 c0 -12 5 -22 9 -22 11 0 10 12 -2 30 -7 12 -9 10 -7 -8z"/>
<path d="M48389 57482 c9 -7 10 -11 2 -15 -7 -4 -8 -5 -1 -3 16 2 14 20 -2 24
-10 3 -10 2 1 -6z"/>
<path d="M48268 57413 c7 -3 16 -2 19 1 4 3 -2 6 -13 5 -11 0 -14 -3 -6 -6z"/>
<path d="M48640 57390 c0 -5 18 -10 40 -10 22 0 40 5 40 10 0 6 -18 10 -40 10
-22 0 -40 -4 -40 -10z"/>
<path d="M48320 57310 c0 -5 18 -10 40 -10 22 0 40 5 40 10 0 6 -18 10 -40 10
-22 0 -40 -4 -40 -10z"/>
<path d="M47838 57243 c7 -3 16 -2 19 1 4 3 -2 6 -13 5 -11 0 -14 -3 -6 -6z"/>
<path d="M48000 57230 c0 -5 18 -10 40 -10 22 0 40 5 40 10 0 6 -18 10 -40 10
-22 0 -40 -4 -40 -10z"/>
<path d="M47747 57219 c-9 -6 -15 -14 -12 -20 10 -15 22 -10 28 11 3 11 4 20
4 20 -1 0 -10 -5 -20 -11z"/>
<path d="M52623 57207 c3 -6 22 -50 42 -97 149 -345 252 -723 307 -1128 19
-144 22 -212 23 -492 0 -203 -5 -366 -13 -435 -17 -149 -57 -393 -80 -493 -11
-45 -16 -82 -12 -82 16 0 247 102 327 145 186 98 304 199 354 300 l31 63 -11
748 c-14 949 -12 899 -40 957 -64 133 -257 268 -559 392 -160 65 -375 137
-369 122z"/>
<path d="M47885 57130 c-3 -6 1 -7 9 -4 18 7 21 14 7 14 -6 0 -13 -4 -16 -10z"/>
<path d="M47881 57053 c22 -29 42 -41 56 -36 14 6 -17 34 -51 47 -17 6 -17 5
-5 -11z m40 -20 c13 -16 12 -17 -3 -4 -10 7 -18 15 -18 17 0 8 8 3 21 -13z"/>
<path d="M52560 53409 c0 -32 35 -140 65 -198 18 -36 74 -120 125 -186 104
-135 140 -201 140 -260 0 -97 -106 -185 -223 -185 -86 0 -178 74 -245 196
l-31 59 -1 -236 0 -235 108 -107 c127 -127 201 -184 300 -234 199 -100 292
-11 292 276 0 294 -109 586 -344 921 -85 122 -186 224 -186 189z"/>
<path d="M51593 49940 c-93 -41 -173 -145 -173 -224 0 -143 129 -396 352 -687
220 -289 531 -606 768 -781 306 -227 389 -98 264 412 -18 73 -49 155 -104 270
-373 791 -360 767 -455 864 -55 56 -143 122 -151 113 -3 -2 20 -40 49 -84 130
-189 281 -483 342 -667 70 -208 44 -352 -54 -301 -123 63 -556 558 -714 816
-46 75 -59 115 -74 231 l-8 57 -42 -19z"/>
<path d="M23415 49768 c291 -238 465 -519 548 -888 l21 -95 4 -3115 c2 -2247
0 -3150 -8 -3239 -34 -380 -200 -717 -485 -989 -225 -215 -496 -357 -830 -434
l-100 -23 -2034 0 -2035 0 -150 -176 c-83 -97 -263 -308 -401 -470 -137 -162
-260 -305 -272 -319 -12 -14 -30 -35 -40 -46 -10 -12 -60 -71 -110 -130 -51
-60 -213 -251 -361 -424 -238 -280 -274 -318 -324 -344 -105 -53 -224 -35
-318 50 -33 29 -16 3 66 -105 97 -128 115 -147 162 -168 106 -49 262 -50 374
-1 45 19 69 44 226 237 97 119 255 313 352 431 97 118 375 459 619 758 l443
542 411 -5 c914 -11 3503 -15 3592 -5 511 58 944 320 1215 735 101 155 189
378 227 575 17 91 18 243 21 3235 2 2052 -1 3175 -7 3242 -21 205 -60 343
-151 530 -131 268 -378 519 -634 644 l-61 30 40 -33z"/>
<path d="M11205 41130 c12 -19 149 -107 230 -147 180 -91 347 -131 568 -138
78 -3 809 -7 1625 -10 l1483 -5 -71 85 -72 84 -1676 4 c-1676 3 -1677 3 -1767
24 -95 23 -199 57 -278 92 -26 11 -45 16 -42 11z"/>
<path d="M16450 39196 c0 -2 8 -10 18 -17 15 -13 16 -12 3 4 -13 16 -21 21
-21 13z"/>
<path d="M16733 36666 c-85 -21 -164 -66 -229 -130 -71 -71 -106 -130 -196
-324 -110 -235 -161 -295 -381 -438 -252 -165 -307 -249 -307 -468 1 -199 68
-406 191 -587 107 -158 299 -271 619 -364 232 -68 322 -129 385 -262 29 -63
53 -72 121 -49 66 22 137 70 188 127 84 93 106 170 106 370 0 133 9 153 83
190 l41 21 -39 19 c-90 44 -140 126 -133 215 7 87 58 136 122 120 15 -4 48
-25 72 -48 37 -34 49 -40 62 -31 23 14 27 49 8 77 -8 13 -58 59 -111 102 -59
49 -111 102 -136 139 -38 56 -41 64 -37 116 5 75 45 153 120 235 33 37 72 92
87 123 22 48 26 69 26 151 -1 107 -17 164 -88 309 l-40 84 -83 -6 c-91 -6
-128 -19 -339 -116 l-130 -59 -17 31 c-26 48 -23 140 6 202 27 59 116 158 189
212 49 36 50 38 26 44 -38 11 -130 8 -186 -5z"/>
<path d="M15290 25670 c-12 -39 -21 -73 -18 -75 2 -3 14 27 27 66 12 39 21 73
18 75 -2 3 -15 -27 -27 -66z"/>
<path d="M15252 25500 c-83 -562 -108 -889 -137 -1780 -24 -713 -38 -989 -76
-1450 -90 -1105 -284 -2282 -619 -3760 -141 -623 -227 -1078 -329 -1740 -222
-1441 -390 -3479 -395 -4790 -1 -429 -3 -418 70 -493 86 -88 247 -121 390 -78
69 20 75 25 180 134 180 186 401 460 624 772 1057 1485 1827 3296 2194 5160
190 966 547 3393 702 4778 10 86 21 157 24 157 3 0 14 -55 22 -122 9 -68 82
-598 162 -1178 276 -2005 467 -3439 505 -3795 36 -328 88 -2010 76 -2450 -11
-440 -27 -647 -80 -1080 -63 -516 63 -1338 327 -2130 125 -374 277 -705 360
-781 26 -25 170 -66 293 -85 44 -6 136 -11 205 -11 148 0 138 -6 211 148 302
636 780 2050 983 2909 148 629 197 1035 177 1456 -19 375 -25 1100 -12 1434
33 848 89 1324 290 2441 166 924 210 1285 231 1882 38 1109 -153 2617 -521
4123 l-70 287 -130 -59 c-636 -288 -1484 -488 -2293 -540 -266 -17 -848 -6
-1096 20 -647 70 -1197 210 -1763 447 -212 89 -486 225 -489 243 -2 9 -9 -22
-16 -69z"/>
<path d="M51594 14503 c5 -298 4 -437 -3 -456 -17 -44 -108 -134 -186 -182
-1059 -660 -6381 -1274 -12610 -1455 -2250 -65 -4934 -67 -6620 -5 -516 19
-934 35 -1015 40 -52 3 -185 9 -295 15 -282 14 -390 20 -465 25 -36 3 -175 12
-310 20 -420 27 -1242 94 -1465 119 -22 3 -107 12 -190 21 -1066 114 -1907
285 -2255 460 -88 45 -182 115 -208 157 -37 60 -38 105 -3 172 l31 58 0 355 0
355 -37 -6 c-104 -19 -559 -122 -774 -176 -771 -193 -1339 -401 -1644 -601
-110 -72 -218 -182 -253 -255 l-27 -59 0 -890 0 -890 27 -58 c318 -677 3658
-1187 8763 -1337 1024 -30 1445 -35 3030 -35 1755 0 2383 9 3860 55 7648 238
14250 1182 15208 2175 59 60 93 116 105 172 13 55 -14 1670 -28 1722 -25 95
-161 225 -331 319 -297 163 -881 336 -1589 472 -181 35 -684 120 -708 120 -13
0 -14 -53 -8 -427z"/>
<path d="M14048 10954 c-5 -4 -8 -33 -8 -65 0 -32 -4 -60 -8 -63 -4 -2 -59 4
-122 16 -139 24 -322 28 -365 7 -61 -29 -87 -196 -45 -280 62 -120 275 -134
564 -38 184 61 374 180 390 244 14 56 -56 119 -173 155 -68 22 -221 37 -233
24z"/>
<path d="M19761 10433 c-23 -5 -24 -7 -17 -72 l6 -68 -173 0 c-185 1 -300 -17
-331 -52 -9 -10 -21 -44 -27 -75 -20 -108 19 -208 95 -249 64 -33 192 -29 312
11 266 89 544 285 544 384 0 74 -99 120 -270 124 -63 1 -126 0 -139 -3z"/>
</g>
</svg>
